<svg xmlns="http://www.w3.org/2000/svg" xmlns:xlink="http://www.w3.org/1999/xlink" width="200" zoomAndPan="magnify" viewBox="0 0 150 149.999998" height="200" preserveAspectRatio="xMidYMid meet" version="1.0"><defs><clipPath id="0fb8fc711a"><path d="M 6.75 0 L 143.25 0 C 146.976562 0 150 3.023438 150 6.75 L 150 143.25 C 150 146.976562 146.976562 150 143.25 150 L 6.75 150 C 3.023438 150 0 146.976562 0 143.25 L 0 6.75 C 0 3.023438 3.023438 0 6.75 0 Z M 6.75 0 " clip-rule="nonzero"/></clipPath></defs><g clip-path="url(#0fb8fc711a)"><rect x="-15" width="180" fill="#ff4b4b" y="-15" height="179.999997" fill-opacity="1"/></g><path stroke-linecap="round" transform="matrix(4.718749, 0, 0, 4.718749, 18.520939, 18.52094)" fill="none" stroke-linejoin="round" d="M 15.999704 1.999702 L 13.700035 4.300199 C 13.564273 4.439272 13.442584 4.589934 13.335796 4.752186 C 13.229008 4.914437 13.138776 5.085795 13.065101 5.265431 C 12.991425 5.445894 12.935962 5.631325 12.89871 5.821722 C 12.861458 6.012947 12.842419 6.205828 12.842419 6.400365 C 12.842419 6.594073 12.861458 6.786954 12.89871 6.978179 C 12.935962 7.168577 12.991425 7.354007 13.065101 7.534471 C 13.138776 7.714106 13.229008 7.885464 13.335796 8.047716 C 13.442584 8.210795 13.564273 8.361458 13.700035 8.499703 L 15.499704 10.3002 C 15.638777 10.435961 15.789439 10.55765 15.95169 10.664438 C 16.11477 10.771226 16.286128 10.861458 16.465763 10.935133 C 16.646227 11.008809 16.831657 11.064272 17.022055 11.101524 C 17.21328 11.138776 17.405333 11.157816 17.599869 11.157816 C 17.794406 11.157816 17.987287 11.138776 18.177684 11.101524 C 18.368909 11.064272 18.55434 11.008809 18.733976 10.935133 C 18.914439 10.861458 19.085797 10.771226 19.248048 10.664438 C 19.4103 10.55765 19.560962 10.435961 19.700035 10.3002 L 21.999704 7.999703 " stroke="#ffffff" stroke-width="2" stroke-opacity="1" stroke-miterlimit="4"/><path stroke-linecap="round" transform="matrix(4.718749, 0, 0, 4.718749, 18.520939, 18.52094)" fill="none" stroke-linejoin="round" d="M 14.999704 14.999703 L 3.300199 3.300199 C 3.200861 3.397881 3.105662 3.499702 3.016258 3.60649 C 2.927682 3.713278 2.843245 3.825033 2.765431 3.940099 C 2.686788 4.055166 2.614768 4.174371 2.547715 4.296888 C 2.48149 4.419404 2.42106 4.544404 2.367252 4.672715 C 2.313444 4.801027 2.266258 4.932649 2.224868 5.0651 C 2.184305 5.198378 2.149536 5.333311 2.122219 5.469901 C 2.094901 5.60649 2.074205 5.744735 2.060132 5.88298 C 2.04606 6.022053 2.039437 6.160298 2.039437 6.300199 C 2.039437 6.439272 2.04606 6.578345 2.060132 6.717418 C 2.074205 6.855663 2.094901 6.99308 2.122219 7.129669 C 2.149536 7.266259 2.184305 7.401193 2.224868 7.534471 C 2.266258 7.667749 2.313444 7.798544 2.367252 7.926855 C 2.42106 8.055166 2.48149 8.180994 2.547715 8.303511 C 2.614768 8.426027 2.686788 8.544405 2.765431 8.660299 C 2.843245 8.775365 2.927682 8.886292 3.016258 8.99308 C 3.105662 9.099868 3.200861 9.202517 3.300199 9.300199 L 10.599869 16.599869 C 11.3002 17.3002 12.599869 17.3002 13.400366 16.599869 Z M 14.999704 14.999703 L 21.999704 21.999704 " stroke="#ffffff" stroke-width="2" stroke-opacity="1" stroke-miterlimit="4"/><path stroke-linecap="round" transform="matrix(4.718749, 0, 0, 4.718749, 18.520939, 18.52094)" fill="none" stroke-linejoin="round" d="M 2.099868 21.800201 L 8.499703 15.499703 " stroke="#ffffff" stroke-width="2" stroke-opacity="1" stroke-miterlimit="4"/><path stroke-linecap="round" transform="matrix(4.718749, 0, 0, 4.718749, 18.520939, 18.52094)" fill="none" stroke-linejoin="round" d="M 18.999704 4.999702 L 11.999703 11.999703 " stroke="#ffffff" stroke-width="2" stroke-opacity="1" stroke-miterlimit="4"/></svg>