<svg xmlns="http://www.w3.org/2000/svg" xmlns:xlink="http://www.w3.org/1999/xlink" width="200" zoomAndPan="magnify" viewBox="0 0 150 37.5" height="50" preserveAspectRatio="xMidYMid meet" version="1.0"><defs><g/></defs><path stroke-linecap="round" transform="matrix(1.541941, 0, 0, 1.541941, 0.986842, 0.000000986842)" fill="none" stroke-linejoin="round" d="M 15.998934 1.998799 L 13.701201 4.299066 C 13.564401 4.4384 13.442801 4.5904 13.336401 4.752533 C 13.230001 4.914666 13.138801 5.086933 13.065334 5.2668 C 12.991868 5.446666 12.936134 5.6316 12.898134 5.8216 C 12.860134 6.014133 12.842401 6.206666 12.842401 6.3992 C 12.842401 6.594266 12.860134 6.7868 12.898134 6.9768 C 12.936134 7.169333 12.991868 7.354267 13.065334 7.534133 C 13.138801 7.714 13.230001 7.886267 13.336401 8.0484 C 13.442801 8.210533 13.564401 8.36 13.701201 8.499333 L 15.499868 10.300533 C 15.639201 10.437333 15.788668 10.5564 15.950801 10.665333 C 16.115468 10.771733 16.285201 10.8604 16.465068 10.933867 C 16.644934 11.007333 16.832401 11.063067 17.022401 11.101067 C 17.212401 11.139067 17.404935 11.1568 17.600001 11.1568 C 17.795068 11.1568 17.987601 11.139067 18.177601 11.101067 C 18.367601 11.063067 18.555068 11.007333 18.734935 10.933867 C 18.914801 10.8604 19.084535 10.771733 19.249201 10.665333 C 19.411335 10.5564 19.560801 10.437333 19.700135 10.300533 L 22.000401 8.000267 " stroke="#ff4b4b" stroke-width="2" stroke-opacity="1" stroke-miterlimit="4"/><path stroke-linecap="round" transform="matrix(1.541941, 0, 0, 1.541941, 0.986842, 0.000000986842)" fill="none" stroke-linejoin="round" d="M 15.000801 14.999867 L 3.299334 3.300933 C 3.0992 3.496 2.921867 3.7088 2.7648 3.939333 C 2.607734 4.169866 2.476 4.4156 2.367067 4.674 C 2.258133 4.929866 2.177067 5.195866 2.121333 5.469466 C 2.068133 5.743066 2.040267 6.021733 2.040267 6.3004 C 2.040267 6.579066 2.068133 6.8552 2.121333 7.1288 C 2.177067 7.404933 2.258133 7.6684 2.367067 7.9268 C 2.476 8.1852 2.607734 8.4284 2.7648 8.658933 C 2.921867 8.892 3.0992 9.1048 3.299334 9.299867 L 10.600401 16.600934 C 11.299601 17.300134 12.599201 17.300134 13.399734 16.600934 Z M 15.000801 14.999867 L 22.000401 21.999468 " stroke="#ff4b4b" stroke-width="2" stroke-opacity="1" stroke-miterlimit="4"/><path stroke-linecap="round" transform="matrix(1.541941, 0, 0, 1.541941, 0.986842, 0.000000986842)" fill="none" stroke-linejoin="round" d="M 2.101067 21.799334 L 8.500267 15.498934 " stroke="#ff4b4b" stroke-width="2" stroke-opacity="1" stroke-miterlimit="4"/><path stroke-linecap="round" transform="matrix(1.541941, 0, 0, 1.541941, 0.986842, 0.000000986842)" fill="none" stroke-linejoin="round" d="M 19.000935 5.0008 L 11.998801 12.0004 " stroke="#ff4b4b" stroke-width="2" stroke-opacity="1" stroke-miterlimit="4"/><g fill="#ff4b4b" fill-opacity="1"><g transform="translate(39.089739, 31.271913)"><g><path d="M 12.609375 -19.171875 L 12.609375 -15.171875 L 8.796875 -15.171875 L 8.796875 0 L 3.484375 0 L 3.484375 -15.171875 L 0.78125 -15.171875 L 0.78125 -19.171875 L 3.484375 -19.171875 L 3.484375 -20.546875 C 3.484375 -22.640625 4.078125 -24.195312 5.265625 -25.21875 C 6.460938 -26.238281 7.960938 -26.75 9.765625 -26.75 C 10.585938 -26.75 11.335938 -26.6875 12.015625 -26.5625 C 12.691406 -26.4375 13.195312 -26.328125 13.53125 -26.234375 L 12.59375 -22.234375 C 12.382812 -22.304688 12.125 -22.367188 11.8125 -22.421875 C 11.507812 -22.484375 11.195312 -22.515625 10.875 -22.515625 C 10.09375 -22.515625 9.550781 -22.332031 9.25 -21.96875 C 8.945312 -21.601562 8.796875 -21.097656 8.796875 -20.453125 L 8.796875 -19.171875 Z M 12.609375 -19.171875 "/></g></g></g><g fill="#ff4b4b" fill-opacity="1"><g transform="translate(52.816189, 31.271913)"><g><path d="M 10.78125 0.375 C 8.84375 0.375 7.164062 -0.0351562 5.75 -0.859375 C 4.34375 -1.691406 3.253906 -2.847656 2.484375 -4.328125 C 1.722656 -5.816406 1.34375 -7.546875 1.34375 -9.515625 C 1.34375 -11.492188 1.722656 -13.222656 2.484375 -14.703125 C 3.253906 -16.191406 4.34375 -17.347656 5.75 -18.171875 C 7.164062 -19.003906 8.84375 -19.421875 10.78125 -19.421875 C 12.71875 -19.421875 14.390625 -19.003906 15.796875 -18.171875 C 17.210938 -17.347656 18.300781 -16.191406 19.0625 -14.703125 C 19.832031 -13.222656 20.21875 -11.492188 20.21875 -9.515625 C 20.21875 -7.546875 19.832031 -5.816406 19.0625 -4.328125 C 18.300781 -2.847656 17.210938 -1.691406 15.796875 -0.859375 C 14.390625 -0.0351562 12.71875 0.375 10.78125 0.375 Z M 10.8125 -3.75 C 12.125 -3.75 13.117188 -4.296875 13.796875 -5.390625 C 14.472656 -6.484375 14.8125 -7.867188 14.8125 -9.546875 C 14.8125 -11.210938 14.472656 -12.597656 13.796875 -13.703125 C 13.117188 -14.804688 12.125 -15.359375 10.8125 -15.359375 C 9.46875 -15.359375 8.453125 -14.804688 7.765625 -13.703125 C 7.085938 -12.597656 6.75 -11.210938 6.75 -9.546875 C 6.75 -7.867188 7.085938 -6.484375 7.765625 -5.390625 C 8.453125 -4.296875 9.46875 -3.75 10.8125 -3.75 Z M 10.8125 -3.75 "/></g></g></g><g fill="#ff4b4b" fill-opacity="1"><g transform="translate(74.37919, 31.271913)"><g><path d="M 10.78125 0.375 C 8.84375 0.375 7.164062 -0.0351562 5.75 -0.859375 C 4.34375 -1.691406 3.253906 -2.847656 2.484375 -4.328125 C 1.722656 -5.816406 1.34375 -7.546875 1.34375 -9.515625 C 1.34375 -11.492188 1.722656 -13.222656 2.484375 -14.703125 C 3.253906 -16.191406 4.34375 -17.347656 5.75 -18.171875 C 7.164062 -19.003906 8.84375 -19.421875 10.78125 -19.421875 C 12.71875 -19.421875 14.390625 -19.003906 15.796875 -18.171875 C 17.210938 -17.347656 18.300781 -16.191406 19.0625 -14.703125 C 19.832031 -13.222656 20.21875 -11.492188 20.21875 -9.515625 C 20.21875 -7.546875 19.832031 -5.816406 19.0625 -4.328125 C 18.300781 -2.847656 17.210938 -1.691406 15.796875 -0.859375 C 14.390625 -0.0351562 12.71875 0.375 10.78125 0.375 Z M 10.8125 -3.75 C 12.125 -3.75 13.117188 -4.296875 13.796875 -5.390625 C 14.472656 -6.484375 14.8125 -7.867188 14.8125 -9.546875 C 14.8125 -11.210938 14.472656 -12.597656 13.796875 -13.703125 C 13.117188 -14.804688 12.125 -15.359375 10.8125 -15.359375 C 9.46875 -15.359375 8.453125 -14.804688 7.765625 -13.703125 C 7.085938 -12.597656 6.75 -11.210938 6.75 -9.546875 C 6.75 -7.867188 7.085938 -6.484375 7.765625 -5.390625 C 8.453125 -4.296875 9.46875 -3.75 10.8125 -3.75 Z M 10.8125 -3.75 "/></g></g></g><g fill="#ff4b4b" fill-opacity="1"><g transform="translate(95.94219, 31.271913)"><g><path d="M 2.125 0 L 2.125 -19.171875 L 7.1875 -19.171875 L 7.1875 -15.78125 L 7.40625 -15.78125 C 7.8125 -16.914062 8.476562 -17.804688 9.40625 -18.453125 C 10.34375 -19.097656 11.457031 -19.421875 12.75 -19.421875 C 14.0625 -19.421875 15.179688 -19.09375 16.109375 -18.4375 C 17.035156 -17.78125 17.648438 -16.894531 17.953125 -15.78125 L 18.15625 -15.78125 C 18.550781 -16.882812 19.257812 -17.765625 20.28125 -18.421875 C 21.3125 -19.085938 22.53125 -19.421875 23.9375 -19.421875 C 25.726562 -19.421875 27.179688 -18.851562 28.296875 -17.71875 C 29.410156 -16.582031 29.96875 -14.972656 29.96875 -12.890625 L 29.96875 0 L 24.671875 0 L 24.671875 -11.84375 C 24.671875 -12.90625 24.382812 -13.703125 23.8125 -14.234375 C 23.25 -14.765625 22.546875 -15.03125 21.703125 -15.03125 C 20.734375 -15.03125 19.976562 -14.722656 19.4375 -14.109375 C 18.894531 -13.492188 18.625 -12.691406 18.625 -11.703125 L 18.625 0 L 13.484375 0 L 13.484375 -11.953125 C 13.484375 -12.890625 13.210938 -13.632812 12.671875 -14.1875 C 12.140625 -14.75 11.4375 -15.03125 10.5625 -15.03125 C 9.675781 -15.03125 8.929688 -14.707031 8.328125 -14.0625 C 7.734375 -13.425781 7.4375 -12.570312 7.4375 -11.5 L 7.4375 0 Z M 2.125 0 "/></g></g></g><g fill="#ff4b4b" fill-opacity="1"><g transform="translate(127.987207, 31.271913)"><g><path d="M 10.859375 0.375 C 8.890625 0.375 7.191406 -0.0234375 5.765625 -0.828125 C 4.347656 -1.628906 3.253906 -2.769531 2.484375 -4.25 C 1.722656 -5.726562 1.34375 -7.476562 1.34375 -9.5 C 1.34375 -11.46875 1.722656 -13.195312 2.484375 -14.6875 C 3.253906 -16.175781 4.335938 -17.335938 5.734375 -18.171875 C 7.128906 -19.003906 8.765625 -19.421875 10.640625 -19.421875 C 12.328125 -19.421875 13.851562 -19.0625 15.21875 -18.34375 C 16.582031 -17.625 17.660156 -16.539062 18.453125 -15.09375 C 19.253906 -13.65625 19.65625 -11.851562 19.65625 -9.6875 L 19.65625 -8.21875 L 6.59375 -8.21875 C 6.59375 -6.78125 6.984375 -5.648438 7.765625 -4.828125 C 8.554688 -4.003906 9.613281 -3.59375 10.9375 -3.59375 C 11.832031 -3.59375 12.601562 -3.78125 13.25 -4.15625 C 13.894531 -4.53125 14.351562 -5.082031 14.625 -5.8125 L 19.546875 -5.484375 C 19.171875 -3.703125 18.21875 -2.28125 16.6875 -1.21875 C 15.164062 -0.15625 13.222656 0.375 10.859375 0.375 Z M 6.59375 -11.515625 L 14.65625 -11.515625 C 14.644531 -12.660156 14.273438 -13.601562 13.546875 -14.34375 C 12.828125 -15.082031 11.890625 -15.453125 10.734375 -15.453125 C 9.546875 -15.453125 8.570312 -15.066406 7.8125 -14.296875 C 7.0625 -13.535156 6.65625 -12.609375 6.59375 -11.515625 Z M 6.59375 -11.515625 "/></g></g></g></svg>